<?xml version="1.0" standalone="no"?>
<!DOCTYPE svg PUBLIC "-//W3C//DTD SVG 20010904//EN"
 "http://www.w3.org/TR/2001/REC-SVG-20010904/DTD/svg10.dtd">
<svg version="1.0" xmlns="http://www.w3.org/2000/svg"
 width="500" height="485" viewBox="0 0 1797.000000 1743.000000"
 preserveAspectRatio="xMidYMid meet">
<metadata>
Created by potrace 1.16, written by Peter Selinger 2001-2019
</metadata>
<g transform="translate(0.000000,1743.000000) scale(0.100000,-0.100000)"
fill="#2B9DC8" stroke="none">
<path d="M0 17295 c0 -74 3 -135 6 -135 3 0 56 49 117 110 62 60 122 117 135
125 12 9 22 20 22 26 0 5 -59 9 -140 9 l-140 0 0 -135z"/>
<path d="M17670 17421 c0 -5 12 -19 28 -31 15 -12 79 -73 143 -136 64 -63 119
-114 123 -114 3 0 6 65 6 145 l0 145 -150 0 c-86 0 -150 -4 -150 -9z"/>
<path d="M2018 11474 c-27 -12 -43 -28 -58 -59 -21 -44 -21 -44 -2 -87 24 -55
29 -58 142 -102 138 -54 177 -75 230 -128 26 -27 51 -48 55 -48 4 0 5 24 3 54
-3 38 -19 82 -52 149 -59 120 -121 186 -199 216 -67 25 -70 25 -119 5z"/>
<path d="M3740 11285 c-6 -14 -10 -34 -10 -43 0 -32 -29 -59 -75 -72 -61 -17
-64 -27 -13 -40 62 -15 70 -22 86 -68 7 -23 17 -42 21 -42 5 0 16 20 26 45 12
34 26 50 53 64 l37 19 -37 22 c-38 22 -42 29 -53 92 -7 47 -22 57 -35 23z"/>
<path d="M2542 11232 c-7 -5 -17 -24 -22 -43 -9 -29 -6 -42 17 -89 34 -66 55
-74 83 -28 25 41 26 108 3 136 -20 24 -62 36 -81 24z"/>
<path d="M2871 11177 c-71 -25 -99 -107 -61 -179 73 -137 80 -154 80 -202 0
-66 -31 -120 -82 -141 -68 -27 -95 -18 -199 62 -50 39 -63 45 -90 39 -47 -9
-65 -30 -90 -103 -24 -72 -59 -103 -117 -103 -71 0 -130 43 -219 160 -91 120
-133 150 -216 150 -124 0 -216 -158 -157 -272 32 -64 66 -95 155 -143 101 -56
175 -117 216 -178 39 -59 52 -163 26 -213 -20 -38 -56 -70 -87 -77 -31 -8 -54
8 -137 91 -53 53 -68 62 -98 62 -86 0 -158 -73 -170 -171 -13 -109 15 -153
176 -272 118 -88 164 -175 139 -266 -16 -59 -75 -101 -142 -101 -97 0 -140
-50 -122 -141 11 -53 -1 -90 -36 -109 -11 -6 -120 -10 -279 -10 -342 0 -353
-4 -387 -147 -10 -43 -10 -66 1 -120 7 -38 20 -124 30 -193 9 -69 23 -168 31
-220 13 -91 26 -188 60 -445 28 -210 83 -587 100 -675 17 -91 48 -158 87 -183
14 -9 46 -22 73 -31 27 -8 81 -24 119 -36 39 -12 106 -37 150 -57 112 -49 429
-165 625 -230 316 -103 737 -200 1155 -264 627 -96 1490 -81 2190 37 258 43
442 81 615 124 47 12 101 26 120 30 67 17 401 120 580 180 183 61 216 74 610
246 129 57 360 170 475 234 61 33 144 78 185 100 41 22 93 51 115 65 22 13 54
32 70 41 46 26 222 148 295 204 36 27 104 80 153 116 53 40 89 75 93 90 4 17
-11 55 -57 141 -95 180 -127 241 -244 468 -59 116 -124 239 -144 275 -20 36
-92 177 -161 313 -139 276 -115 249 -259 282 -56 13 -75 14 -81 5 -4 -6 -10
-42 -13 -80 -6 -70 -56 -200 -76 -200 -15 0 -13 17 5 65 9 22 18 86 20 145 6
129 -3 152 -96 227 -76 62 -274 164 -375 194 -291 84 -739 158 -1057 174
l-137 7 -93 53 c-51 28 -142 80 -203 115 -261 151 -548 272 -740 314 -115 24
-351 54 -490 61 -142 7 -216 26 -292 77 -34 24 -46 41 -69 101 -36 96 -57 125
-98 133 -50 9 -72 -8 -110 -89 -39 -83 -56 -101 -113 -121 -46 -16 -94 -8
-142 22 -57 37 -85 74 -116 157 -65 176 -232 224 -314 91 -25 -40 -26 -68 -5
-101 9 -13 18 -51 21 -83 5 -55 3 -61 -26 -94 -80 -92 -236 -32 -304 116 -33
72 -57 186 -57 271 0 102 -37 167 -119 209 -35 19 -44 19 -90 3z m2146 -867
c270 -42 509 -138 786 -317 119 -77 118 -77 -280 -69 -554 10 -1112 40 -1468
77 -174 18 -393 69 -430 99 -36 30 18 67 160 112 150 47 543 112 740 122 131
6 374 -5 492 -24z m-1678 -615 c117 -31 184 -84 233 -183 31 -63 33 -73 33
-172 -1 -90 -4 -111 -24 -150 -36 -68 -61 -98 -115 -137 -73 -52 -112 -66
-196 -67 -234 -3 -392 155 -378 379 8 118 68 227 157 284 86 56 192 73 290 46z
m3605 -27 c148 -59 237 -228 209 -394 -25 -145 -110 -242 -252 -289 -64 -21
-184 -17 -245 9 -143 59 -245 242 -218 388 29 157 138 277 282 309 57 13 161
2 224 -23z m556 -40 c73 -23 123 -46 193 -91 80 -52 59 -64 -80 -48 -102 12
-160 33 -217 76 -41 31 -69 71 -61 86 8 13 79 3 165 -23z m48 -704 c32 -9 34
13 -49 -457 -9 -52 -4 -77 15 -77 7 0 37 13 67 30 105 58 172 74 304 75 107 0
128 -3 196 -28 100 -37 176 -103 220 -193 55 -110 52 -281 -7 -515 -8 -30 -14
-73 -14 -95 0 -65 -24 -86 -215 -189 -38 -21 -88 -48 -110 -60 -22 -13 -74
-41 -116 -63 -42 -22 -85 -46 -96 -53 -27 -16 -58 -5 -48 19 8 17 23 86 49
217 8 39 21 102 29 140 53 245 55 281 22 344 -58 113 -288 86 -362 -42 -29
-50 -67 -182 -78 -272 -3 -27 -12 -79 -20 -115 -7 -36 -21 -108 -30 -160 -31
-183 -35 -203 -46 -216 -9 -11 -59 -14 -238 -14 -269 0 -270 0 -252 76 14 62
67 331 96 494 60 325 88 467 151 780 23 118 48 247 55 285 7 39 17 76 22 83 7
9 63 12 221 12 116 0 221 -3 234 -6z m-5876 -83 c22 -8 28 -18 32 -53 9 -79
37 -301 51 -413 8 -60 21 -164 30 -230 8 -66 19 -151 23 -190 6 -62 10 -70 29
-73 19 -3 28 7 51 55 16 32 40 78 54 103 32 58 93 172 153 285 26 50 60 113
75 140 15 28 49 93 75 145 27 52 66 125 87 163 l39 67 226 -2 227 -3 8 -30 c4
-16 12 -70 17 -120 6 -49 21 -169 35 -265 43 -296 55 -392 62 -461 3 -36 9
-72 14 -79 9 -15 40 -10 51 10 38 70 399 803 399 810 0 4 17 37 39 71 l38 64
224 5 c123 3 230 3 237 1 6 -2 12 -10 12 -18 0 -9 -62 -138 -137 -287 -145
-288 -194 -387 -303 -611 -37 -77 -116 -238 -174 -359 -59 -120 -119 -244
-132 -274 -42 -95 -24 -90 -287 -90 -128 0 -250 3 -272 7 -39 6 -40 8 -52 61
-15 67 -35 187 -63 380 -45 299 -69 450 -75 460 -20 32 -47 -15 -254 -433
-121 -244 -226 -451 -235 -459 -13 -13 -55 -15 -285 -14 -170 1 -275 6 -281
12 -11 11 -21 66 -45 259 -22 171 -61 457 -86 625 -25 174 -66 489 -79 609 -6
52 -12 97 -15 99 -2 3 0 12 5 22 8 16 32 18 233 19 128 1 235 -2 249 -8z
m3108 -355 c186 -27 317 -99 394 -216 45 -69 59 -142 53 -264 -3 -61 -12 -145
-21 -186 -8 -41 -22 -127 -31 -190 -9 -63 -21 -137 -27 -165 -6 -27 -16 -92
-23 -142 -7 -51 -18 -100 -25 -108 -10 -12 -47 -15 -215 -15 -112 0 -210 3
-219 6 -12 4 -16 20 -16 55 0 58 -10 61 -60 20 -91 -74 -185 -104 -330 -105
-100 -1 -126 3 -201 27 -102 34 -169 86 -214 168 -28 50 -30 62 -30 154 0 88
4 107 29 162 64 141 239 242 461 267 28 3 130 6 227 7 159 1 178 3 194 20 14
16 15 23 4 49 -21 50 -50 81 -99 102 -88 39 -317 20 -456 -38 -27 -11 -35 -11
-44 0 -12 15 -82 231 -84 261 -2 26 73 62 203 98 162 45 358 57 530 33z m1617
-1 c132 -18 292 -61 300 -83 3 -7 -4 -32 -15 -55 -11 -23 -41 -86 -66 -140
-26 -54 -52 -100 -60 -103 -7 -3 -37 5 -67 17 -80 31 -230 59 -322 59 -136 0
-227 -40 -227 -100 0 -48 27 -60 202 -90 312 -55 392 -89 455 -198 23 -39 28
-60 31 -139 4 -90 3 -95 -31 -168 -75 -156 -219 -248 -471 -299 -149 -30 -466
-15 -591 28 -22 8 -61 19 -87 26 -53 14 -108 45 -108 61 0 5 27 66 60 133 33
68 60 128 60 133 0 6 7 16 15 23 12 10 19 9 37 -2 34 -22 140 -55 248 -78 209
-44 400 -13 400 65 0 49 -37 65 -252 104 -216 40 -309 76 -365 141 -50 58 -66
99 -71 180 -10 176 83 321 260 407 90 44 170 69 263 82 99 14 276 12 402 -4z"/>
<path d="M4520 7731 c-116 -8 -176 -38 -208 -103 -23 -46 -23 -48 -6 -84 24
-50 66 -74 134 -74 85 0 127 16 179 68 47 48 86 137 74 169 -6 16 -46 34 -71
31 -9 -1 -55 -4 -102 -7z"/>
<path d="M1315 10665 c-29 -28 -33 -79 -10 -112 49 -70 165 -36 165 48 0 76
-101 119 -155 64z"/>
<path d="M1537 10371 c-54 -11 -87 -46 -87 -92 0 -70 57 -83 136 -28 27 18 69
38 93 45 25 6 47 16 48 21 6 17 -58 51 -107 56 -25 3 -62 2 -83 -2z"/>
<path d="M11620 9811 c-356 -371 -428 -443 -447 -447 -11 -3 -179 -6 -372 -7
l-351 -2 -32 -40 c-18 -22 -85 -94 -149 -160 -63 -66 -163 -170 -220 -231 -58
-61 -192 -196 -297 -299 -162 -158 -195 -186 -215 -181 -18 4 -37 35 -86 138
-35 73 -109 225 -164 338 -54 113 -119 248 -144 300 -24 52 -48 102 -52 110
-7 13 -62 15 -386 18 -261 1 -382 -1 -391 -9 -10 -8 -10 -17 -3 -37 16 -43
135 -277 198 -389 6 -10 26 -49 44 -88 45 -92 175 -344 217 -420 93 -170 240
-469 240 -489 0 -17 -14 -35 -42 -57 -24 -18 -72 -58 -108 -89 -122 -106 -357
-274 -478 -340 -15 -9 -70 -42 -122 -74 -128 -80 -645 -340 -795 -400 -66 -26
-133 -54 -150 -61 -16 -8 -70 -29 -120 -48 -49 -19 -121 -47 -160 -62 -268
-105 -753 -247 -1020 -299 -44 -9 -147 -30 -230 -46 -300 -61 -494 -88 -860
-117 -344 -28 -907 -20 -1250 17 -329 36 -519 61 -620 81 -329 67 -593 136
-860 225 -240 80 -400 135 -420 144 -86 38 -336 140 -359 146 -26 6 -27 5 -17
-14 9 -18 246 -163 313 -192 13 -6 37 -18 53 -28 106 -64 381 -194 520 -247
55 -21 123 -47 150 -57 52 -21 468 -159 592 -197 121 -37 353 -94 448 -111 28
-5 82 -16 120 -24 61 -14 232 -40 500 -76 155 -21 453 -40 710 -47 361 -8 707
15 1140 77 146 21 452 72 510 85 33 7 114 26 180 40 105 23 385 100 455 125
14 5 79 25 145 45 66 20 134 43 151 50 18 8 48 17 68 20 43 8 48 -6 15 -41
-12 -13 -19 -30 -16 -38 6 -14 54 -16 400 -16 l393 0 527 530 c301 302 532
527 539 525 17 -7 54 -68 108 -175 44 -88 88 -174 151 -295 30 -59 80 -156
144 -285 48 -98 137 -265 146 -277 9 -10 86 -13 400 -13 258 0 389 3 389 10 0
6 -11 27 -23 48 -13 20 -52 93 -87 162 -35 69 -90 170 -121 225 -56 99 -74
132 -199 370 -59 110 -83 156 -149 277 -30 56 -122 229 -131 248 -4 8 -28 57
-54 107 -25 51 -46 101 -46 110 0 19 151 177 290 302 103 93 778 766 900 898
159 171 480 554 480 571 0 5 14 21 30 37 17 16 51 59 76 97 25 37 52 72 60 79
15 12 19 30 7 28 -5 0 -33 -26 -63 -58z"/>
<path d="M1522 9624 c-28 -19 -30 -74 -4 -97 33 -30 79 -41 112 -27 37 15 47
48 26 89 -27 51 -88 68 -134 35z"/>
<path d="M887 9588 c-3 -13 -9 -48 -12 -80 -8 -64 -31 -108 -66 -125 -13 -6
-57 -16 -96 -23 -109 -18 -109 -34 -1 -51 128 -20 146 -39 162 -176 6 -52 15
-94 21 -94 5 0 20 46 32 102 28 135 47 155 162 173 120 19 124 31 14 48 -37 5
-79 13 -93 16 -34 10 -68 64 -75 120 -9 70 -19 105 -31 109 -7 2 -14 -6 -17
-19z"/>
<path d="M11294 8681 c-2 -2 -116 -7 -252 -10 -226 -6 -251 -8 -280 -27 -17
-11 -152 -137 -299 -280 -298 -289 -415 -399 -466 -438 -19 -15 -40 -40 -47
-57 -12 -28 -9 -37 34 -122 26 -51 63 -121 82 -157 19 -36 67 -126 106 -200
39 -74 95 -177 125 -228 29 -52 53 -95 53 -97 0 -1 20 -38 44 -81 23 -44 85
-161 135 -262 55 -107 101 -187 113 -193 13 -7 57 -10 113 -7 81 3 97 7 126
30 44 33 63 74 84 178 20 105 44 200 55 220 4 8 16 14 26 13 11 -2 1288 -3
2839 -3 2480 0 2832 2 2915 16 314 50 526 182 630 392 82 166 80 348 -5 509
-19 35 -35 73 -35 83 0 10 27 69 59 132 63 120 131 285 131 317 0 32 -36 104
-66 133 -40 37 -123 73 -236 102 -174 44 -263 50 -563 36 -168 -8 -432 -11
-700 -8 -566 7 -4715 14 -4721 9z m339 -230 c229 -81 354 -327 317 -626 -23
-186 -75 -314 -177 -433 -137 -160 -332 -241 -557 -229 -127 6 -200 28 -272
84 -25 19 -52 32 -59 29 -8 -3 -17 -22 -20 -43 -6 -43 -30 -166 -50 -263 -8
-36 -20 -98 -26 -139 -7 -40 -19 -79 -27 -87 -8 -9 -35 -14 -67 -14 -61 0 -71
9 -119 110 -14 30 -42 84 -62 120 -76 137 -118 225 -133 278 -10 33 -6 62 35
277 8 44 21 116 29 160 15 88 32 182 64 350 11 61 25 141 30 179 11 76 53 147
127 216 l42 39 176 0 176 1 0 -33 c0 -62 10 -64 97 -20 91 48 143 64 233 72
84 8 171 -2 243 -28z m2562 7 c175 -45 294 -141 368 -295 41 -87 42 -90 45
-212 4 -128 -2 -195 -18 -221 -9 -15 -176 -19 -792 -20 l-148 0 -6 -25 c-14
-56 66 -134 163 -159 114 -30 208 -17 332 46 l84 42 24 -30 c13 -16 46 -54 72
-84 115 -130 118 -137 79 -171 -33 -28 -153 -89 -223 -112 -117 -38 -169 -46
-312 -47 -181 0 -259 16 -390 81 -211 104 -307 266 -305 515 0 61 7 126 17
165 66 248 281 458 535 524 148 39 333 40 475 3z m-1011 -8 c-1 -14 -9 -65
-19 -115 -9 -49 -23 -123 -30 -163 -18 -95 -25 -104 -85 -96 -61 8 -181 -11
-232 -37 -102 -52 -166 -171 -198 -369 -12 -74 -21 -125 -55 -330 -9 -57 -21
-114 -26 -127 l-9 -23 -239 0 c-267 0 -269 1 -249 64 5 17 14 63 18 101 9 63
19 119 64 360 8 39 25 140 40 225 15 85 31 178 37 205 5 28 20 106 34 174 13
68 30 128 37 133 16 10 398 9 436 -1 23 -7 27 -13 28 -47 3 -78 4 -78 60 -33
87 71 209 109 334 105 52 -1 55 -2 54 -26z m2566 10 c206 -38 248 -59 222
-114 -6 -11 -35 -73 -66 -138 -30 -64 -59 -119 -65 -122 -6 -4 -27 1 -48 10
-107 45 -175 58 -323 58 -158 1 -186 -6 -223 -56 -26 -35 -16 -75 21 -89 30
-12 119 -30 267 -54 112 -19 200 -46 261 -81 171 -97 165 -372 -11 -537 -42
-40 -134 -99 -170 -108 -16 -5 -73 -21 -125 -36 -90 -25 -106 -27 -300 -27
-240 1 -374 23 -507 86 -57 26 -56 45 8 177 28 58 55 117 60 130 11 27 15 26
124 -12 165 -57 241 -70 386 -69 93 2 132 12 167 44 27 26 28 48 3 80 -21 26
-64 39 -206 58 -182 25 -327 78 -388 141 -97 100 -102 273 -11 419 66 107 201
190 381 234 134 34 375 36 543 6z m1315 10 c205 -34 279 -56 283 -85 3 -23
-117 -273 -141 -293 -13 -11 -22 -10 -54 4 -80 36 -170 54 -294 60 -143 8
-213 -4 -253 -41 -60 -56 -19 -103 109 -127 255 -48 304 -59 353 -77 71 -26
103 -48 145 -98 76 -92 87 -218 28 -347 -63 -138 -209 -233 -436 -283 -109
-23 -400 -22 -535 2 -108 19 -256 70 -264 91 -5 12 7 49 34 109 5 11 22 49 38
85 16 36 33 76 37 88 8 28 15 27 117 -12 121 -46 259 -69 385 -63 92 3 117 8
147 26 30 19 36 28 36 57 0 31 -4 36 -44 53 -24 11 -88 27 -142 36 -309 51
-424 107 -474 230 -29 71 -25 191 10 279 57 147 230 257 469 300 84 16 367 19
446 6z"/>
<path d="M11195 8101 c-73 -18 -153 -79 -198 -153 -23 -36 -47 -132 -47 -183
0 -68 28 -146 67 -186 62 -65 170 -76 279 -28 50 22 54 26 99 90 65 92 87 256
45 347 -42 93 -141 138 -245 113z"/>
<path d="M13824 8135 c-92 -45 -160 -128 -143 -173 l9 -23 231 2 c217 2 231 4
241 22 26 49 -56 166 -132 187 -64 18 -150 12 -206 -15z"/>
<path d="M17848 122 c-59 -59 -111 -110 -115 -114 -3 -5 48 -8 115 -8 l122 0
0 115 c0 63 -3 115 -7 115 -5 0 -56 -48 -115 -108z"/>
<path d="M0 105 l0 -105 105 0 c58 0 105 3 105 6 0 8 -196 204 -204 204 -3 0
-6 -47 -6 -105z"/>
</g>
</svg>